<svg width="109" height="109" viewBox="0 0 109 109" fill="none" xmlns="http://www.w3.org/2000/svg">
<path d="M85.1579 68.8853L95.858 77.4729L93.1916 80.7953C92.1734 82.0639 90.9397 82.7064 89.4904 82.7229C88.0514 82.7477 86.4689 82.0674 84.7427 80.6821C82.9126 79.2133 81.8227 77.7487 81.4731 76.2885C81.1339 74.8366 81.4733 73.4763 82.4915 72.2077L85.1579 68.8853ZM85.3041 71.2594L83.8395 73.0844C83.1635 73.9266 82.9465 74.8467 83.1886 75.8445C83.4327 76.861 84.2047 77.8909 85.5045 78.9341L86.2844 79.56C87.4802 80.5198 88.5696 80.9838 89.5525 80.952C90.5374 80.9389 91.3679 80.5113 92.0439 79.669L93.5085 77.8441L85.3041 71.2594Z" fill="#EF233C"/>
<path d="M75.6228 80.9223L81.6185 93.2629L74.0091 96.96L73.3099 95.5208L79.3363 92.5929L77.4571 88.7252L72.2223 91.2686L71.5231 89.8295L76.7579 87.2861L74.7389 83.1306L68.6046 86.111L67.9054 84.6719L75.6228 80.9223Z" fill="#EF233C"/>
<path d="M58.7377 87.1872C59.5641 87.1681 60.3337 87.2836 61.0463 87.5339C61.759 87.7841 62.3355 88.2042 62.776 88.7942C63.2031 89.3844 63.4284 90.1861 63.4519 91.1992C63.4534 91.2658 63.4551 91.3391 63.457 91.4191C63.4458 91.5127 63.4405 91.5728 63.4411 91.5995L61.6216 91.6417C61.6213 91.6283 61.6266 91.5682 61.6374 91.4612C61.6353 91.3679 61.6334 91.288 61.6319 91.2213C61.6124 90.3815 61.338 89.761 60.8086 89.3599C60.2794 88.972 59.6283 88.787 58.8552 88.805C57.9354 88.8263 57.2334 89.0359 56.7492 89.4339C56.2519 89.8455 56.0118 90.4179 56.0288 91.151C56.0402 91.6442 56.1827 92.041 56.4564 92.3414C56.7168 92.6422 57.0626 92.8876 57.4938 93.0776C57.9116 93.268 58.3757 93.4373 58.8859 93.5855C59.3961 93.7337 59.9133 93.8951 60.4375 94.0697C60.9484 94.2446 61.4205 94.4737 61.8538 94.7571C62.2738 95.0408 62.6224 95.4062 62.8995 95.8532C63.1636 96.3139 63.3038 96.8974 63.3201 97.6039C63.3396 98.4437 63.1624 99.1413 62.7885 99.6968C62.4012 100.253 61.884 100.665 61.2367 100.933C60.5764 101.215 59.8463 101.365 59.0465 101.384C58.2467 101.402 57.5238 101.286 56.8778 101.034C56.2188 100.796 55.6894 100.395 55.2895 99.8305C54.89 99.2796 54.6796 98.5443 54.6583 97.6245L54.6527 97.3846L56.4723 97.3424L56.4792 97.6423C56.4956 98.3488 56.7413 98.8833 57.2165 99.2457C57.6917 99.6081 58.2759 99.7813 58.969 99.7653C59.6888 99.7486 60.2918 99.5812 60.7779 99.2632C61.2507 98.9455 61.4793 98.4534 61.4639 97.787C61.4531 97.3204 61.3176 96.9434 61.0576 96.6561C60.7842 96.369 60.4386 96.1303 60.0207 95.9399C59.5898 95.7631 59.1193 95.6007 58.6091 95.4524C58.0988 95.3042 57.5883 95.1427 57.0774 94.9678C56.5666 94.7929 56.1011 94.5636 55.6811 94.2799C55.2478 93.9965 54.8992 93.6312 54.6355 93.1838C54.3587 92.7501 54.2123 92.1867 54.1962 91.4936C54.1724 90.4672 54.36 89.6426 54.7591 89.0199C55.1448 88.3974 55.6809 87.9382 56.3676 87.6422C57.0546 87.3596 57.8446 87.2079 58.7377 87.1872Z" fill="#EF233C"/>
<path d="M48.301 87.107L44.3626 100.25L42.6767 99.7444L46.6151 86.6018L48.301 87.107Z" fill="#EF233C"/>
<path d="M37.1279 82.428C38.4992 83.4881 39.1953 84.7677 39.2161 86.2669C39.2288 87.7766 38.5093 89.4702 37.0578 91.3479C35.5981 93.2362 34.1244 94.3468 32.6367 94.6798C31.1385 95.0047 29.7143 94.6452 28.364 93.6014C27.6045 93.0142 27.0394 92.3499 26.6689 91.6085C26.2983 90.867 26.1685 90.0757 26.2795 89.2345C26.3717 88.3958 26.7562 87.5386 27.4331 86.6631L28.8572 87.764C28.1559 88.6712 27.8783 89.5099 28.0244 90.2801C28.1624 91.0608 28.6058 91.7407 29.3548 92.3197C30.2514 93.0129 31.211 93.2322 32.2335 92.9778C33.256 92.7233 34.2769 91.9368 35.2962 90.6182L35.9078 89.827C36.9272 88.5084 37.447 87.3345 37.4674 86.3054C37.4877 85.2762 37.0443 84.411 36.1371 83.7097C35.2299 83.0084 34.3749 82.7519 33.572 82.9402C32.761 83.1391 31.956 83.7554 31.1568 84.7892L30.9611 85.0424L33.7776 87.2197L32.8358 88.4381L28.5951 85.1599L32.962 79.5109L33.8797 80.2204L33.2507 81.6554C33.9529 81.4229 34.6269 81.3794 35.2729 81.5249C35.9188 81.6703 36.5371 81.9713 37.1279 82.428Z" fill="#EF233C"/>
<path d="M28.6163 76.4389L16.2757 82.4346L15.6115 81.0674L21.136 72.7132C21.2453 72.5415 21.4057 72.3376 21.6171 72.1015C21.8226 71.8534 22.013 71.6349 22.1881 71.446C22.3453 71.2511 22.4239 71.1536 22.4239 71.1536L22.3797 71.1083C22.3797 71.1083 22.2747 71.1668 22.0647 71.2836C21.8488 71.3885 21.6119 71.5111 21.3538 71.6512C21.0958 71.7914 20.9009 71.8936 20.7689 71.9576L13.0156 75.7247L12.3251 74.3035L24.6657 68.3078L25.3037 69.621L19.6887 78.0636C19.5554 78.247 19.3949 78.4658 19.2072 78.7201C19.0016 78.9682 18.8202 79.1898 18.6629 79.3847C18.4998 79.5678 18.4183 79.6593 18.4183 79.6593L18.4625 79.7045C18.4625 79.7045 18.5615 79.649 18.7596 79.5379C18.9576 79.4269 19.1856 79.3012 19.4437 79.1611C19.6897 79.0267 19.8966 78.9187 20.0645 78.8372L27.9258 75.0177L28.6163 76.4389Z" fill="#EF233C"/>
<path d="M21.9071 51.1152C21.7195 51.8516 21.395 52.4501 20.9338 52.9104C20.4725 53.3708 19.9262 53.6788 19.2949 53.8345C18.6507 53.9868 17.9539 53.9675 17.2045 53.7766C16.4293 53.5791 15.7147 53.1975 15.0607 52.6319C14.4101 52.0534 13.9558 51.3254 13.6977 50.4478C13.2152 50.6138 12.7361 50.7119 12.2606 50.7422C11.7884 50.7594 11.3262 50.7105 10.8739 50.5953C10.2796 50.4439 9.76655 50.1893 9.33482 49.8317C8.89016 49.4707 8.57685 49.0263 8.39488 48.4984C8.2 47.9671 8.1832 47.385 8.34449 46.7519C8.4597 46.2996 8.67004 45.9061 8.97552 45.5711C9.28429 45.2232 9.67668 44.9792 10.1527 44.8391C10.632 44.686 11.1882 44.6901 11.8213 44.8514C12.4673 45.016 12.9948 45.2948 13.4037 45.6879C13.8031 46.0648 14.1148 46.4883 14.3391 46.9582C14.5634 47.4281 14.7295 47.8832 14.8375 48.3235L18.7251 46.7546C18.377 46.5009 17.9738 46.2743 17.5155 46.075C17.0604 45.8627 16.5422 45.6826 15.9608 45.5344L16.3459 44.0227C17.2245 44.2466 17.9961 44.5394 18.6606 44.9014C19.3123 45.26 19.8635 45.6619 20.3142 46.1069L23.2104 44.946L22.7167 46.8841L21.3415 47.4212C21.6945 48.034 21.9132 48.6607 21.9977 49.3014C22.0821 49.9421 22.0519 50.5467 21.9071 51.1152ZM11.1964 49.0057C12.0104 49.213 12.7867 49.1632 13.5254 48.856C13.4308 48.3091 13.2358 47.8053 12.9404 47.3448C12.6482 46.8714 12.1791 46.5524 11.5331 46.3878C11.1196 46.2824 10.7396 46.2888 10.3931 46.4069C10.0465 46.525 9.82221 46.7843 9.72017 47.1849C9.60167 47.65 9.69533 48.0385 10.0011 48.3503C10.307 48.6621 10.7054 48.8806 11.1964 49.0057ZM17.5562 52.1532C18.2539 52.3309 18.883 52.2917 19.4436 52.0355C19.9913 51.776 20.354 51.2974 20.5318 50.5997C20.6305 50.2121 20.6421 49.7885 20.5666 49.3289C20.4781 48.8661 20.2764 48.4157 19.9614 47.9777L15.0972 49.8963C15.2531 50.4726 15.5565 50.9558 16.0075 51.3459C16.4585 51.7359 16.9747 52.005 17.5562 52.1532Z" fill="#EF233C"/>
<path d="M28.8979 32.9478L20.7866 21.8822L24.9805 18.808C25.529 18.406 26.101 18.1602 26.6967 18.0707C27.2924 17.9813 27.8637 18.0502 28.4106 18.2775C28.9496 18.4941 29.4201 18.8766 29.8221 19.4251C30.2872 20.0595 30.5185 20.7248 30.5163 21.4208C30.5168 22.0982 30.3436 22.6963 29.9966 23.2152L30.0439 23.2797C30.7184 23.0498 31.4252 23.0442 32.1642 23.263C32.9032 23.4817 33.5328 23.946 34.053 24.6557C34.5102 25.2794 34.7552 25.9182 34.7881 26.5719C34.8238 27.207 34.6918 27.8163 34.392 28.3997C34.0952 28.9645 33.6617 29.4557 33.0918 29.8735L28.8979 32.9478ZM25.6942 25.6002L28.0492 23.8739C28.5869 23.4798 28.8909 22.9924 28.9613 22.4118C29.0345 21.8126 28.9017 21.2818 28.5627 20.8194C28.1371 20.2387 27.6658 19.9228 27.149 19.8718C26.6243 19.8101 26.1093 19.9644 25.6039 20.3349L23.152 22.1321L25.6942 25.6002ZM29.3714 30.6168L31.9523 28.725C32.4792 28.3387 32.8005 27.8635 32.916 27.2994C33.0236 26.7246 32.8607 26.1414 32.4271 25.55C32.0566 25.0446 31.5614 24.7298 30.9414 24.6056C30.3214 24.4815 29.7156 24.6362 29.1242 25.0698L26.6401 26.8907L29.3714 30.6168Z" fill="#EF233C"/>
<path d="M44.9796 23.4735C43.5893 23.7277 42.4288 23.5332 41.4979 22.8902C40.5671 22.2471 39.9638 21.1714 39.6881 19.663L38.0227 10.554L39.754 10.2375L41.4373 19.4449C41.6124 20.4023 41.9881 21.0859 42.5645 21.4956C43.1409 21.9053 43.8489 22.0334 44.6883 21.8799C45.5408 21.7241 46.1576 21.3538 46.5387 20.769C46.9328 20.1819 47.0424 19.4096 46.8673 18.4522L45.184 9.24476L46.9153 8.92824L48.5807 18.0373C48.8564 19.5456 48.6728 20.7652 48.0297 21.696C47.3866 22.6268 46.3699 23.2193 44.9796 23.4735Z" fill="#EF233C"/>
<path d="M55.8246 21.8882L57.7733 8.30732L59.5155 8.5573L57.5668 22.1382L55.8246 21.8882Z" fill="#EF233C"/>
<path d="M63.1625 22.6531L69.0204 10.2465L70.6119 10.9979L65.4372 21.9577L70.5011 24.3487L69.8179 25.7955L63.1625 22.6531Z" fill="#EF233C"/>
<path d="M73.8068 27.0931L84.1546 18.0842L86.9518 21.2971C88.0199 22.524 88.4337 23.852 88.1931 25.2813C87.9625 26.7019 87.0126 28.1388 85.3432 29.5922C83.5734 31.1331 81.9389 31.9462 80.4398 32.0315C78.9507 32.1081 77.6721 31.5329 76.604 30.3061L73.8068 27.0931ZM76.1692 27.3699L77.7057 29.1348C78.4149 29.9493 79.2819 30.3259 80.3068 30.2645C81.3505 30.2044 82.5009 29.6271 83.7579 28.5327L84.5122 27.8761C85.6686 26.8693 86.3183 25.8794 86.4612 24.9064C86.6229 23.9347 86.3492 23.0416 85.64 22.227L84.1035 20.4622L76.1692 27.3699Z" fill="#EF233C"/>
<path d="M86.9055 49.7651C86.8938 49.0052 87.0502 48.3427 87.3749 47.7776C87.6995 47.2125 88.1461 46.7722 88.7147 46.4568C89.2965 46.1411 89.9741 45.9773 90.7473 45.9653C91.5472 45.953 92.3368 46.1341 93.116 46.5088C93.8954 46.8968 94.5245 47.4805 95.0032 48.2599C95.4255 47.9733 95.8622 47.7532 96.3132 47.5996C96.7644 47.4593 97.2233 47.3855 97.69 47.3783C98.3032 47.3688 98.865 47.4802 99.3753 47.7123C99.899 47.9443 100.318 48.2912 100.632 48.753C100.959 49.2147 101.127 49.7722 101.137 50.4254C101.145 50.892 101.045 51.327 100.838 51.7302C100.631 52.1468 100.316 52.485 99.8931 52.7449C99.4706 53.0181 98.9327 53.1598 98.2794 53.1699C97.6129 53.1802 97.0308 53.0491 96.5332 52.7768C96.0491 52.5176 95.6373 52.1906 95.2979 51.7958C94.9584 51.4009 94.6789 51.0052 94.4594 50.6086L91.1181 53.1404C91.5206 53.2943 91.969 53.4073 92.4635 53.4797C92.9582 53.5654 93.5056 53.6036 94.1055 53.5944L94.1296 55.1542C93.223 55.1682 92.4017 55.0875 91.6656 54.9122C90.9428 54.7367 90.3056 54.4932 89.754 54.1816L87.2628 56.0603L87.2319 54.0606L88.4185 53.1821C87.9174 52.6831 87.5422 52.1355 87.293 51.5393C87.0437 50.9431 86.9146 50.3517 86.9055 49.7651ZM97.795 48.9969C96.9551 49.0098 96.2188 49.2612 95.5863 49.7511C95.8208 50.2542 96.1409 50.6893 96.5466 51.0564C96.9525 51.4368 97.4888 51.6219 98.1554 51.6116C98.582 51.605 98.9471 51.4994 99.2506 51.2947C99.5541 51.09 99.7027 50.781 99.6963 50.3677C99.6889 49.8877 99.4968 49.5373 99.12 49.3164C98.7433 49.0956 98.3016 48.989 97.795 48.9969ZM90.8329 47.6242C90.113 47.6353 89.5161 47.8379 89.0421 48.2319C88.5815 48.6257 88.3567 49.1826 88.3678 49.9025C88.374 50.3025 88.4737 50.7143 88.6669 51.1381C88.8735 51.5616 89.1861 51.9435 89.6047 52.2837L93.797 49.1586C93.4956 48.6432 93.0763 48.2563 92.5389 47.9979C92.0015 47.7395 91.4329 47.6149 90.8329 47.6242Z" fill="#EF233C"/>
</svg>
